<svg xmlns="http://www.w3.org/2000/svg" width="1em" height="1em" viewBox="0 0 24 24"><g fill="none" stroke="currentColor" stroke-width="1.5"><path stroke-linecap="round" stroke-linejoin="round" d="M19 17v-6c0-2.828 0-4.243-.879-5.121C17.243 5 15.828 5 13 5h-3m0 0c0-.7 1.994-2.008 2.5-2.5M10 5c0 .7 1.994 2.008 2.5 2.5M5 7.5v6c0 2.828 0 4.243.879 5.121c.878.879 2.293.879 5.121.879h3m0 0c0 .7-1.994 2.009-2.5 2.5m2.5-2.5c0-.7-1.994-2.009-2.5-2.5"/><circle cx="19" cy="19" r="2"/><circle cx="5" cy="5" r="2"/></g></svg>